<?xml version="1.0" encoding="UTF-8"?>
<svg id="logosandtypes_com" data-name="logosandtypes com" xmlns="http://www.w3.org/2000/svg" viewBox="0 0 150 150">
  <defs>
    <style>
      .cls-1 {
        fill: #e43e30;
      }

      .cls-2 {
        fill: none;
      }
    </style>
  </defs>
  <path class="cls-2" d="M0,0H150V150H0V0Z"/>
  <path id="Path_3388" data-name="Path 3388" class="cls-1" d="M71.49,8.53C34.22,10.5,5.6,42.31,7.57,79.59c.53,9.95,3.25,19.67,7.97,28.44l15.49-15.5c1.97-1.93,2.83-4.72,2.27-7.42-5.04-23.03,9.54-45.79,32.57-50.83,1.7-.37,3.42-.64,5.16-.8,13.86-1.3,27.49,4.26,36.48,14.89,1.33,1.61,1.11,3.99-.5,5.33-.68,.57-1.54,.87-2.43,.87h-31.65c-1.38,0-2.65,.73-3.34,1.93l-10.14,17.56c-.69,1.19-.69,2.66,0,3.86l10.14,17.56c.69,1.19,1.96,1.93,3.34,1.93h31.65c2.09,0,3.79,1.71,3.78,3.8,0,.89-.32,1.76-.9,2.44-10.26,12.08-26.39,17.47-41.85,13.98-2.73-.6-5.58,.24-7.54,2.23l-15.42,15.46c32.77,17.84,73.79,5.74,91.63-27.03,17.84-32.77,5.74-73.79-27.03-91.63-10.95-5.96-23.33-8.78-35.77-8.14"/>
</svg>