<svg width="15" height="15" viewBox="0 0 15 15" fill="none" xmlns="http://www.w3.org/2000/svg">
<path d="M14.1619 0.89003H5.60636C5.3914 0.89003 5.21746 1.06397 5.21746 1.27893C5.21746 1.49389 5.3914 1.66783 5.60636 1.66783H13.2231L0.664722 14.2262C0.512801 14.3781 0.512801 14.6242 0.664722 14.7761C0.740665 14.852 0.840196 14.89 0.939691 14.89C1.03919 14.89 1.13868 14.852 1.21466 14.7761L13.773 2.21773V9.8345C13.773 10.0495 13.9469 10.2234 14.1619 10.2234C14.3769 10.2234 14.5508 10.0495 14.5508 9.8345V1.27893C14.5508 1.06397 14.3768 0.89003 14.1619 0.89003Z" fill="white"/>
</svg>
