<svg width="14" height="15" viewBox="0 0 14 15" fill="none" xmlns="http://www.w3.org/2000/svg">
<path d="M13.6111 0.599945H5.05557C4.84061 0.599945 4.66667 0.773888 4.66667 0.988846C4.66667 1.2038 4.84061 1.37775 5.05557 1.37775H12.6723L0.113941 13.9361C-0.0379804 14.088 -0.0379804 14.3341 0.113941 14.486C0.189884 14.5619 0.289415 14.5999 0.38891 14.5999C0.488405 14.5999 0.5879 14.5619 0.663879 14.486L13.2222 1.92765V9.54442C13.2222 9.75938 13.3961 9.93332 13.6111 9.93332C13.8261 9.93332 14 9.75938 14 9.54442V0.988846C14 0.773888 13.826 0.599945 13.6111 0.599945Z" fill="#405FF2"/>
</svg>
