<svg width="61" height="61" viewBox="0 0 61 61" fill="none" xmlns="http://www.w3.org/2000/svg">
<g clip-path="url(#clip0_5_4398)">
<g clip-path="url(#clip1_5_4398)">
<g clip-path="url(#clip2_5_4398)">
<path d="M30.5 2.37354V7.06104" stroke="#FF5CF4" stroke-width="3" stroke-miterlimit="10" stroke-linecap="round" stroke-linejoin="round"/>
<path d="M49.25 2.37354L44.5625 7.06104" stroke="#FF5CF4" stroke-width="3" stroke-miterlimit="10" stroke-linecap="round" stroke-linejoin="round"/>
<path d="M15.9738 36.6905C14.8072 35.4354 14.0938 33.7534 14.0938 31.9048C14.0938 30.7762 14.3596 29.7098 14.8323 28.7645L19.5198 19.3895C20.6732 17.0827 23.0579 15.4986 25.8125 15.4986H18.7812C16.0266 15.4986 13.642 17.0827 12.4885 19.3895L7.80102 28.7645C7.3284 29.7098 7.0625 30.7762 7.0625 31.9048C7.0625 33.7534 7.77594 35.4354 8.94254 36.6905L27.0658 56.189C27.9218 57.11 29.1436 57.686 30.5 57.686C31.8564 57.686 33.0782 57.11 33.9342 56.1891L34.0156 56.1014L15.9738 36.6905Z" fill="#EEF1FB"/>
<path d="M48.5115 19.3895L53.199 28.7645C53.6716 29.7096 53.9375 30.7762 53.9375 31.9048C53.9375 33.7534 53.2241 35.4355 52.0575 36.6906L33.9342 56.1891C33.0782 57.11 31.8564 57.686 30.5 57.686C29.1436 57.686 27.9218 57.11 27.0658 56.1891L8.94254 36.6906C7.77594 35.4355 7.0625 33.7534 7.0625 31.9048C7.0625 30.7762 7.3284 29.7096 7.80102 28.7645L12.4885 19.3895C13.642 17.0826 16.0266 15.4986 18.7812 15.4986H42.2188C44.9734 15.4986 47.358 17.0826 48.5115 19.3895Z" stroke="#405FF2" stroke-width="3" stroke-miterlimit="10" stroke-linecap="round" stroke-linejoin="round"/>
<path d="M11.75 2.37354L16.4375 7.06104" stroke="#FF5CF4" stroke-width="3" stroke-miterlimit="10" stroke-linecap="round" stroke-linejoin="round"/>
<path d="M17.8867 29.561H43.1169" stroke="#405FF2" stroke-width="3" stroke-miterlimit="10" stroke-linecap="round" stroke-linejoin="round"/>
<path d="M25.8125 24.8736L30.5 29.561L35.1875 24.8736" stroke="#405FF2" stroke-width="3" stroke-miterlimit="10" stroke-linecap="round" stroke-linejoin="round"/>
<path d="M30.5 43.6236V29.7604" stroke="#405FF2" stroke-width="3" stroke-miterlimit="10" stroke-linecap="round" stroke-linejoin="round"/>
</g>
</g>
</g>
<defs>
<clipPath id="clip0_5_4398">
<rect width="60" height="60" fill="white" transform="translate(0.5 0.0297852)"/>
</clipPath>
<clipPath id="clip1_5_4398">
<rect width="60" height="60" fill="white" transform="translate(0.5 0.0297852)"/>
</clipPath>
<clipPath id="clip2_5_4398">
<rect width="60" height="60" fill="white" transform="translate(0.5 0.0297852)"/>
</clipPath>
</defs>
</svg>
