<svg width="19" height="16" viewBox="0 0 19 16" fill="none" xmlns="http://www.w3.org/2000/svg">
<path d="M18.9492 9.85995C18.9492 11.9 18.3492 13.72 17.1492 15.32C17.0292 15.48 16.8692 15.57 16.6692 15.59C16.4692 15.61 16.2892 15.56 16.1292 15.44C15.9692 15.32 15.8792 15.17 15.8592 14.99C15.8392 14.81 15.8892 14.64 16.0092 14.48C17.0492 13.12 17.5692 11.58 17.5692 9.85995C17.5692 8.49995 17.2292 7.23995 16.5492 6.07995C15.8692 4.91995 14.9392 3.99995 13.7592 3.31995C12.5792 2.63995 11.3092 2.29995 9.94922 2.29995C8.58922 2.29995 7.31922 2.63995 6.13922 3.31995C4.95922 3.99995 4.02922 4.91995 3.34922 6.07995C2.66922 7.23995 2.32922 8.49995 2.32922 9.85995C2.32922 11.58 2.84922 13.12 3.88922 14.48C4.00922 14.64 4.05922 14.81 4.03922 14.99C4.01922 15.17 3.92922 15.32 3.76922 15.44C3.60922 15.56 3.42922 15.61 3.22922 15.59C3.02922 15.57 2.86922 15.48 2.74922 15.32C1.54922 13.72 0.949219 11.9 0.949219 9.85995C0.949219 8.25995 1.34922 6.76995 2.14922 5.38995C2.94922 4.00995 4.03922 2.91995 5.41922 2.11995C6.79922 1.31995 8.30922 0.919953 9.94922 0.919953C11.5892 0.919953 13.0992 1.31995 14.4792 2.11995C15.8592 2.91995 16.9492 4.00995 17.7492 5.38995C18.5492 6.76995 18.9492 8.25995 18.9492 9.85995ZM14.3892 5.65995C14.5492 5.77995 14.6292 5.93995 14.6292 6.13995C14.6292 6.33995 14.5492 6.49995 14.3892 6.61995L12.1092 8.95995C12.3092 9.31995 12.4092 9.69995 12.4092 10.1C12.4092 10.78 12.1692 11.36 11.6892 11.84C11.2092 12.32 10.6292 12.56 9.94922 12.56C9.26922 12.56 8.68922 12.32 8.20922 11.84C7.72922 11.36 7.48922 10.78 7.48922 10.1C7.48922 9.41995 7.72922 8.83995 8.20922 8.35995C8.68922 7.87995 9.26922 7.63995 9.94922 7.63995C10.3492 7.63995 10.7292 7.73995 11.0892 7.93995L13.4292 5.65995C13.5492 5.49995 13.7092 5.41995 13.9092 5.41995C14.1092 5.41995 14.2692 5.49995 14.3892 5.65995ZM11.0292 10.1C11.0292 9.81995 10.9192 9.57995 10.6992 9.37995C10.4792 9.17995 10.2292 9.07995 9.94922 9.07995C9.66922 9.07995 9.41922 9.17995 9.19922 9.37995C8.97922 9.57995 8.86922 9.81995 8.86922 10.1C8.86922 10.38 8.97922 10.63 9.19922 10.85C9.41922 11.07 9.66922 11.18 9.94922 11.18C10.2292 11.18 10.4792 11.07 10.6992 10.85C10.9192 10.63 11.0292 10.38 11.0292 10.1Z" fill="#050B20"/>
</svg>
