<svg width="18" height="19" viewBox="0 0 18 19" fill="none" xmlns="http://www.w3.org/2000/svg">
<path d="M10.9877 3.59993C10.9877 3.43993 10.9377 3.30993 10.8377 3.20993C10.7377 3.10993 10.6077 3.05993 10.4477 3.05993H4.80766C4.64766 3.05993 4.51766 3.10993 4.41766 3.20993C4.31766 3.30993 4.26766 3.43993 4.26766 3.59993V8.09993C4.26766 8.25993 4.31766 8.39993 4.41766 8.51993C4.51766 8.63993 4.64766 8.69993 4.80766 8.69993H10.4477C10.6077 8.69993 10.7377 8.63993 10.8377 8.51993C10.9377 8.39993 10.9877 8.25993 10.9877 8.09993V3.59993ZM9.84766 7.55993H5.34766V4.19993H9.84766V7.55993ZM17.4677 4.19993L15.1877 3.11993C15.0677 3.03993 14.9277 3.01993 14.7677 3.05993C14.6077 3.09993 14.4977 3.18993 14.4377 3.32993C14.3777 3.46993 14.3677 3.61993 14.4077 3.77993C14.4477 3.93993 14.5477 4.03993 14.7077 4.07993L15.5477 4.55993L15.4877 4.73993C15.4877 5.09993 15.5977 5.41993 15.8177 5.69993C16.0377 5.97993 16.3077 6.17993 16.6277 6.29993V13.1399C16.6277 13.2999 16.5677 13.4399 16.4477 13.5599C16.3277 13.6799 16.1977 13.7399 16.0577 13.7399C15.9177 13.7399 15.7877 13.6799 15.6677 13.5599C15.5477 13.4399 15.4877 13.2999 15.4877 13.1399V8.63993C15.4877 7.99993 15.2577 7.41993 14.7977 6.89993C14.3377 6.37993 13.8277 6.05993 13.2677 5.93993V2.45993C13.2677 1.85993 13.0477 1.33993 12.6077 0.899929C12.1677 0.45993 11.6477 0.239929 11.0477 0.239929H4.26766C3.66766 0.239929 3.13766 0.45993 2.67766 0.899929C2.21766 1.33993 1.98766 1.85993 1.98766 2.45993V15.0599L1.20766 15.4799C0.967656 15.5999 0.847656 15.7599 0.847656 15.9599V17.6399C0.847656 17.7999 0.907656 17.9399 1.02766 18.0599C1.14766 18.1799 1.28766 18.2399 1.44766 18.2399H13.8077C13.9677 18.2399 14.0977 18.1799 14.1977 18.0599C14.2977 17.9399 14.3477 17.7999 14.3477 17.6399V15.9599C14.3477 15.7599 14.2477 15.5999 14.0477 15.4799L13.2677 15.0599V7.07993C13.5477 7.19993 13.7977 7.40993 14.0177 7.70993C14.2377 8.00993 14.3477 8.31993 14.3477 8.63993V13.1399C14.3477 13.6199 14.5177 14.0299 14.8577 14.3699C15.1977 14.7099 15.5977 14.8799 16.0577 14.8799C16.5177 14.8799 16.9177 14.7099 17.2577 14.3699C17.5977 14.0299 17.7677 13.6199 17.7677 13.1399V4.73993C17.7677 4.49993 17.6677 4.31993 17.4677 4.19993ZM13.2677 17.0999H1.98766V16.3199L2.82766 15.8999C3.02766 15.8199 3.12766 15.6599 3.12766 15.4199V2.45993C3.12766 2.17993 3.23766 1.92993 3.45766 1.70993C3.67766 1.48993 3.94766 1.37993 4.26766 1.37993H11.0477C11.3277 1.37993 11.5777 1.48993 11.7977 1.70993C12.0177 1.92993 12.1277 2.17993 12.1277 2.45993V15.4199C12.1277 15.6599 12.2277 15.8199 12.4277 15.8999L13.2677 16.3199V17.0999Z" fill="#050B20"/>
</svg>
