<svg width="42" height="60" viewBox="0 0 42 60" fill="none" xmlns="http://www.w3.org/2000/svg">
<path d="M13.9688 52.9974C13.9688 52.7618 13.827 52.5493 13.6096 52.4587C11.0682 51.3993 9.2812 48.8925 9.2812 45.9673V23.4673C9.2812 20.5421 11.0682 18.0352 13.6096 16.9759C13.827 16.8853 13.9688 16.6727 13.9688 16.4372V16.436H9.2812C5.398 16.436 2.25 19.5841 2.25 23.4673V45.9673C2.25 49.8505 5.398 52.9986 9.2812 52.9986H13.9688V52.9974Z" fill="#EEF1FB"/>
<path d="M14.3711 41.3465L27.6295 28.0881" stroke="#FF5CF4" stroke-width="3" stroke-miterlimit="10" stroke-linecap="round" stroke-linejoin="round"/>
<path d="M21 21.1236L35.0625 2.37354" stroke="#405FF2" stroke-width="3" stroke-miterlimit="10" stroke-linecap="round" stroke-linejoin="round"/>
<path d="M6.9375 2.37354L16.3895 12.9781" stroke="#405FF2" stroke-width="3" stroke-miterlimit="10" stroke-linecap="round" stroke-linejoin="round"/>
<path d="M39.75 30.0298V23.4673C39.75 19.5841 36.602 16.436 32.7188 16.436H29.0747C27.4508 13.6457 24.4612 11.7486 21 11.7486C17.5388 11.7486 14.5493 13.6457 12.9253 16.436H9.2812C5.398 16.436 2.25 19.5841 2.25 23.4673V45.9673C2.25 49.8505 5.398 52.9986 9.2812 52.9986H12.9253C14.5492 55.7889 17.5388 57.686 21 57.686C24.4612 57.686 27.4507 55.7889 29.0747 52.9986H32.7188C36.602 52.9986 39.75 49.8505 39.75 45.9673V39.4048" stroke="#405FF2" stroke-width="3" stroke-miterlimit="10" stroke-linecap="round" stroke-linejoin="round"/>
</svg>
