<svg width="94" height="95" viewBox="0 0 94 95" fill="none" xmlns="http://www.w3.org/2000/svg">
<g clip-path="url(#clip0_5_4351)">
<path d="M14.9215 39.2386C14.9215 21.6956 27.8139 7.1637 44.6409 4.60068C42.9062 4.33632 41.1295 4.19928 39.3209 4.19928C19.969 4.19928 4.28125 19.8871 4.28125 39.2388C4.28125 58.5906 19.969 74.2784 39.3209 74.2784C41.1295 74.2784 42.9062 74.1412 44.6409 73.8768C27.814 71.3136 14.9215 56.7819 14.9215 39.2386Z" fill="white" fill-opacity="0.2"/>
<path d="M38.7438 77.9473C17.3997 77.9473 0.0351562 60.5827 0.0351562 39.2386C0.0351562 17.8946 17.3997 0.530029 38.7438 0.530029C60.0878 0.530029 77.4524 17.8946 77.4524 39.2386C77.4524 60.5827 60.0878 77.9473 38.7438 77.9473ZM38.7438 7.86816C21.446 7.86816 7.37328 21.9408 7.37328 39.2386C7.37328 56.5365 21.446 70.6092 38.7438 70.6092C56.0416 70.6092 70.1143 56.5365 70.1143 39.2386C70.1143 21.9408 56.0416 7.86816 38.7438 7.86816Z" fill="#405FF2"/>
<path d="M90.2932 94.53C89.3543 94.53 88.4152 94.1719 87.6986 93.4555L71.2796 77.0364C69.8468 75.6035 69.8468 73.2802 71.2796 71.8475C72.7125 70.4145 75.0358 70.4145 76.4685 71.8475L92.8876 88.2665C94.3204 89.6995 94.3204 92.0227 92.8876 93.4555C92.1712 94.1717 91.2321 94.53 90.2932 94.53ZM43.173 49.6278L57.6726 35.0372C59.101 33.5998 59.0937 31.2768 57.6563 29.8484C56.2193 28.4202 53.8963 28.427 52.4675 29.8647L37.965 44.4584C37.1969 45.233 36.178 45.6597 35.096 45.6597C34.0139 45.6597 32.995 45.233 32.2271 44.4584L25.2043 37.3749C23.7776 35.9359 21.4546 35.9257 20.0155 37.3526C18.5765 38.7793 18.5666 41.1023 19.9932 42.5414L27.0161 49.6248C29.1728 51.7999 32.0422 52.9976 35.0961 52.9976C38.1501 52.9976 41.0195 51.7999 43.173 49.6278Z" fill="white"/>
</g>
<defs>
<clipPath id="clip0_5_4351">
<rect width="94" height="94" fill="white" transform="translate(0 0.530029)"/>
</clipPath>
</defs>
</svg>
