<svg width="17" height="16" viewBox="0 0 17 16" fill="none" xmlns="http://www.w3.org/2000/svg">
<path d="M2.36031 0.919937C1.80031 0.919937 1.32031 1.11994 0.920312 1.51994C0.520313 1.91994 0.320312 2.40994 0.320312 2.98994C0.320312 3.56994 0.520313 4.05994 0.920312 4.45994C1.32031 4.85994 1.80031 5.05994 2.36031 5.05994C2.92031 5.05994 3.40031 4.85994 3.80031 4.45994C4.20031 4.05994 4.40031 3.56994 4.40031 2.98994C4.40031 2.40994 4.20031 1.91994 3.80031 1.51994C3.40031 1.11994 2.92031 0.919937 2.36031 0.919937ZM2.36031 2.05994C2.60031 2.05994 2.82031 2.14994 3.02031 2.32994C3.22031 2.50994 3.32031 2.72994 3.32031 2.98994C3.32031 3.24994 3.22031 3.46994 3.02031 3.64994C2.82031 3.82994 2.60031 3.91994 2.36031 3.91994C2.12031 3.91994 1.90031 3.82994 1.70031 3.64994C1.50031 3.46994 1.40031 3.24994 1.40031 2.98994C1.40031 2.72994 1.50031 2.50994 1.70031 2.32994C1.90031 2.14994 2.12031 2.05994 2.36031 2.05994ZM2.36031 11.4199C1.80031 11.4199 1.32031 11.6199 0.920312 12.0199C0.520313 12.4199 0.320312 12.9099 0.320312 13.4899C0.320312 14.0699 0.520313 14.5599 0.920312 14.9599C1.32031 15.3599 1.80031 15.5599 2.36031 15.5599C2.92031 15.5599 3.40031 15.3599 3.80031 14.9599C4.20031 14.5599 4.40031 14.0699 4.40031 13.4899C4.40031 12.9099 4.20031 12.4199 3.80031 12.0199C3.40031 11.6199 2.92031 11.4199 2.36031 11.4199ZM2.36031 12.5599C2.60031 12.5599 2.82031 12.6499 3.02031 12.8299C3.22031 13.0099 3.32031 13.2299 3.32031 13.4899C3.32031 13.7499 3.22031 13.9699 3.02031 14.1499C2.82031 14.3299 2.60031 14.4199 2.36031 14.4199C2.12031 14.4199 1.90031 14.3299 1.70031 14.1499C1.50031 13.9699 1.40031 13.7499 1.40031 13.4899C1.40031 13.2299 1.50031 13.0099 1.70031 12.8299C1.90031 12.6499 2.12031 12.5599 2.36031 12.5599ZM8.36031 0.919937C7.80031 0.919937 7.32031 1.11994 6.92031 1.51994C6.52031 1.91994 6.32031 2.40994 6.32031 2.98994C6.32031 3.56994 6.52031 4.05994 6.92031 4.45994C7.32031 4.85994 7.80031 5.05994 8.36031 5.05994C8.92031 5.05994 9.40031 4.85994 9.80031 4.45994C10.2003 4.05994 10.4003 3.56994 10.4003 2.98994C10.4003 2.40994 10.2003 1.91994 9.80031 1.51994C9.40031 1.11994 8.92031 0.919937 8.36031 0.919937ZM8.36031 2.05994C8.60031 2.05994 8.82031 2.14994 9.02031 2.32994C9.22031 2.50994 9.32031 2.72994 9.32031 2.98994C9.32031 3.24994 9.22031 3.46994 9.02031 3.64994C8.82031 3.82994 8.60031 3.91994 8.36031 3.91994C8.12031 3.91994 7.90031 3.82994 7.70031 3.64994C7.50031 3.46994 7.40031 3.24994 7.40031 2.98994C7.40031 2.72994 7.50031 2.50994 7.70031 2.32994C7.90031 2.14994 8.12031 2.05994 8.36031 2.05994ZM8.36031 11.4199C7.80031 11.4199 7.32031 11.6199 6.92031 12.0199C6.52031 12.4199 6.32031 12.9099 6.32031 13.4899C6.32031 14.0699 6.52031 14.5599 6.92031 14.9599C7.32031 15.3599 7.80031 15.5599 8.36031 15.5599C8.92031 15.5599 9.40031 15.3599 9.80031 14.9599C10.2003 14.5599 10.4003 14.0699 10.4003 13.4899C10.4003 12.9099 10.2003 12.4199 9.80031 12.0199C9.40031 11.6199 8.92031 11.4199 8.36031 11.4199ZM8.36031 12.5599C8.60031 12.5599 8.82031 12.6499 9.02031 12.8299C9.22031 13.0099 9.32031 13.2299 9.32031 13.4899C9.32031 13.7499 9.22031 13.9699 9.02031 14.1499C8.82031 14.3299 8.60031 14.4199 8.36031 14.4199C8.12031 14.4199 7.90031 14.3299 7.70031 14.1499C7.50031 13.9699 7.40031 13.7499 7.40031 13.4899C7.40031 13.2299 7.50031 13.0099 7.70031 12.8299C7.90031 12.6499 8.12031 12.5599 8.36031 12.5599ZM14.3603 0.919937C13.8003 0.919937 13.3203 1.11994 12.9203 1.51994C12.5203 1.91994 12.3203 2.40994 12.3203 2.98994C12.3203 3.56994 12.5203 4.05994 12.9203 4.45994C13.3203 4.85994 13.8003 5.05994 14.3603 5.05994C14.9203 5.05994 15.4003 4.85994 15.8003 4.45994C16.2003 4.05994 16.4003 3.56994 16.4003 2.98994C16.4003 2.40994 16.2003 1.91994 15.8003 1.51994C15.4003 1.11994 14.9203 0.919937 14.3603 0.919937ZM14.3603 2.05994C14.6003 2.05994 14.8203 2.14994 15.0203 2.32994C15.2203 2.50994 15.3203 2.72994 15.3203 2.98994C15.3203 3.24994 15.2203 3.46994 15.0203 3.64994C14.8203 3.82994 14.6003 3.91994 14.3603 3.91994C14.1203 3.91994 13.9003 3.82994 13.7003 3.64994C13.5003 3.46994 13.4003 3.24994 13.4003 2.98994C13.4003 2.72994 13.5003 2.50994 13.7003 2.32994C13.9003 2.14994 14.1203 2.05994 14.3603 2.05994ZM14.3603 11.4199C13.8003 11.4199 13.3203 11.6199 12.9203 12.0199C12.5203 12.4199 12.3203 12.9099 12.3203 13.4899C12.3203 14.0699 12.5203 14.5599 12.9203 14.9599C13.3203 15.3599 13.8003 15.5599 14.3603 15.5599C14.9203 15.5599 15.4003 15.3599 15.8003 14.9599C16.2003 14.5599 16.4003 14.0699 16.4003 13.4899C16.4003 12.9099 16.2003 12.4199 15.8003 12.0199C15.4003 11.6199 14.9203 11.4199 14.3603 11.4199ZM14.3603 12.5599C14.6003 12.5599 14.8203 12.6499 15.0203 12.8299C15.2203 13.0099 15.3203 13.2299 15.3203 13.4899C15.3203 13.7499 15.2203 13.9699 15.0203 14.1499C14.8203 14.3299 14.6003 14.4199 14.3603 14.4199C14.1203 14.4199 13.9003 14.3299 13.7003 14.1499C13.5003 13.9699 13.4003 13.7499 13.4003 13.4899C13.4003 13.2299 13.5003 13.0099 13.7003 12.8299C13.9003 12.6499 14.1203 12.5599 14.3603 12.5599ZM1.82031 4.45994V11.9599C1.82031 12.1199 1.87031 12.2599 1.97031 12.3799C2.07031 12.4999 2.20031 12.5599 2.36031 12.5599C2.52031 12.5599 2.65031 12.4999 2.75031 12.3799C2.85031 12.2599 2.90031 12.1399 2.90031 12.0199V4.45994C2.90031 4.33994 2.85031 4.21994 2.75031 4.09994C2.65031 3.97994 2.52031 3.91994 2.36031 3.91994C2.20031 3.91994 2.07031 3.97994 1.97031 4.09994C1.87031 4.21994 1.82031 4.33994 1.82031 4.45994ZM7.82031 4.45994V11.9599C7.82031 12.1199 7.87031 12.2599 7.97031 12.3799C8.07031 12.4999 8.20031 12.5599 8.36031 12.5599C8.52031 12.5599 8.65031 12.4999 8.75031 12.3799C8.85031 12.2599 8.90031 12.1399 8.90031 12.0199V4.45994C8.90031 4.33994 8.85031 4.21994 8.75031 4.09994C8.65031 3.97994 8.52031 3.91994 8.36031 3.91994C8.20031 3.91994 8.07031 3.97994 7.97031 4.09994C7.87031 4.21994 7.82031 4.33994 7.82031 4.45994ZM13.8203 4.45994V7.45994C13.8203 7.53994 13.8003 7.59994 13.7603 7.63994C13.7203 7.67994 13.6803 7.69994 13.6403 7.69994H2.36031C2.20031 7.69994 2.07031 7.74994 1.97031 7.84994C1.87031 7.94994 1.82031 8.07994 1.82031 8.23994C1.82031 8.39994 1.87031 8.52994 1.97031 8.62994C2.07031 8.72994 2.20031 8.77994 2.36031 8.77994H13.6403C14.0003 8.77994 14.3003 8.65994 14.5403 8.41994C14.7803 8.17994 14.9003 7.85994 14.9003 7.45994V4.51994C14.9003 4.35994 14.8503 4.21994 14.7503 4.09994C14.6503 3.97994 14.5203 3.91994 14.3603 3.91994C14.2003 3.91994 14.0703 3.97994 13.9703 4.09994C13.8703 4.21994 13.8203 4.33994 13.8203 4.45994Z" fill="#050B20"/>
</svg>
