<svg width="14" height="15" viewBox="0 0 14 15" fill="none" xmlns="http://www.w3.org/2000/svg">
<path d="M13.6111 0.160034H5.05557C4.84061 0.160034 4.66667 0.333977 4.66667 0.548935C4.66667 0.763893 4.84061 0.937836 5.05557 0.937836H12.6723L0.113941 13.4962C-0.0379804 13.6481 -0.0379804 13.8942 0.113941 14.0461C0.189884 14.122 0.289415 14.16 0.38891 14.16C0.488405 14.16 0.5879 14.122 0.663879 14.0461L13.2222 1.48773V9.1045C13.2222 9.31946 13.3961 9.4934 13.6111 9.4934C13.8261 9.4934 14 9.31946 14 9.1045V0.548935C14 0.333977 13.826 0.160034 13.6111 0.160034Z" fill="#050B20"/>
</svg>
